<mxfile modified="2023-01-10T03:02:15.418Z" host="Electron" agent="5.0 (Windows NT 10.0; Win64; x64) AppleWebKit/537.36 (KHTML, like Gecko) draw.io/20.3.0 Chrome/104.0.5112.114 Electron/20.1.3 Safari/537.36" etag="wu7yq8uGfD0j3TDQnvjB" compressed="false" version="20.3.0" type="device">
  <diagram id="vJaIe024QUcnOqqceUci" name="Page-8">
    <mxGraphModel dx="782" dy="515" grid="1" gridSize="10" guides="1" tooltips="1" connect="1" arrows="1" fold="1" page="1" pageScale="1" pageWidth="827" pageHeight="1169" math="0" shadow="0">
      <root>
        <mxCell id="V2W_sSQIjvDGnYA8sgOU-0" />
        <mxCell id="V2W_sSQIjvDGnYA8sgOU-1" parent="V2W_sSQIjvDGnYA8sgOU-0" />
        <mxCell id="V2W_sSQIjvDGnYA8sgOU-2" value="Successful Compilation of Code" style="rounded=0;whiteSpace=wrap;html=1;fontSize=12;align=left;fillColor=#dae8fc;strokeColor=#6c8ebf;" parent="V2W_sSQIjvDGnYA8sgOU-1" vertex="1">
          <mxGeometry x="120" y="290" width="90" height="40" as="geometry" />
        </mxCell>
        <mxCell id="V2W_sSQIjvDGnYA8sgOU-3" value="Unit Tests of Logic" style="rounded=0;whiteSpace=wrap;html=1;fontSize=12;fontColor=#333333;align=left;fillColor=#f5f5f5;strokeColor=#666666;" parent="V2W_sSQIjvDGnYA8sgOU-1" vertex="1">
          <mxGeometry x="120" y="390" width="90" height="40" as="geometry" />
        </mxCell>
        <mxCell id="V2W_sSQIjvDGnYA8sgOU-4" value="Functional Tests (on Deployed app)" style="rounded=0;whiteSpace=wrap;html=1;fontSize=12;align=left;fillColor=#e1d5e7;strokeColor=#9673a6;" parent="V2W_sSQIjvDGnYA8sgOU-1" vertex="1">
          <mxGeometry x="320" y="440" width="90" height="40" as="geometry" />
        </mxCell>
        <mxCell id="V2W_sSQIjvDGnYA8sgOU-5" value="Static Analysis to find Bottlenecks" style="rounded=0;whiteSpace=wrap;html=1;fontSize=12;align=left;fillColor=#d5e8d4;strokeColor=#82b366;" parent="V2W_sSQIjvDGnYA8sgOU-1" vertex="1">
          <mxGeometry x="220" y="340" width="90" height="40" as="geometry" />
        </mxCell>
        <mxCell id="V2W_sSQIjvDGnYA8sgOU-6" value="Static Analysis to find Complexity" style="rounded=0;whiteSpace=wrap;html=1;fontSize=12;align=left;fillColor=#dae8fc;strokeColor=#6c8ebf;" parent="V2W_sSQIjvDGnYA8sgOU-1" vertex="1">
          <mxGeometry x="120" y="340" width="90" height="40" as="geometry" />
        </mxCell>
        <mxCell id="V2W_sSQIjvDGnYA8sgOU-7" value="Adherence to Code Format &amp;amp; Styling Rules" style="rounded=0;whiteSpace=wrap;html=1;fontSize=12;align=left;fillColor=#dae8fc;strokeColor=#6c8ebf;" parent="V2W_sSQIjvDGnYA8sgOU-1" vertex="1">
          <mxGeometry x="120" y="240" width="90" height="40" as="geometry" />
        </mxCell>
        <mxCell id="V2W_sSQIjvDGnYA8sgOU-8" value="Integration Tests (on deployed app)" style="rounded=0;whiteSpace=wrap;html=1;fontSize=12;align=left;fillColor=#dae8fc;strokeColor=#6c8ebf;" parent="V2W_sSQIjvDGnYA8sgOU-1" vertex="1">
          <mxGeometry x="120" y="440" width="90" height="40" as="geometry" />
        </mxCell>
        <mxCell id="V2W_sSQIjvDGnYA8sgOU-9" value="Build Report Warning Count" style="rounded=0;whiteSpace=wrap;html=1;fontSize=12;align=left;fillColor=#dae8fc;strokeColor=#6c8ebf;" parent="V2W_sSQIjvDGnYA8sgOU-1" vertex="1">
          <mxGeometry x="220" y="290" width="90" height="40" as="geometry" />
        </mxCell>
        <mxCell id="V2W_sSQIjvDGnYA8sgOU-10" value="Static Analysis for Security" style="rounded=0;whiteSpace=wrap;html=1;fontSize=12;align=left;fillColor=#f8cecc;strokeColor=#b85450;" parent="V2W_sSQIjvDGnYA8sgOU-1" vertex="1">
          <mxGeometry x="320" y="340" width="90" height="40" as="geometry" />
        </mxCell>
        <mxCell id="V2W_sSQIjvDGnYA8sgOU-11" value="Active Analysis for Security" style="rounded=0;whiteSpace=wrap;html=1;fontSize=12;align=left;fillColor=#f8cecc;strokeColor=#b85450;" parent="V2W_sSQIjvDGnYA8sgOU-1" vertex="1">
          <mxGeometry x="220" y="440" width="90" height="40" as="geometry" />
        </mxCell>
        <mxCell id="3KLm6uESehlThUzL8ZvY-0" value="Title" parent="V2W_sSQIjvDGnYA8sgOU-0" visible="0" />
        <mxCell id="V2W_sSQIjvDGnYA8sgOU-24" value="&lt;font style=&quot;font-size: 12px&quot;&gt;Diagram: Testing - Patterns - Branch Validation Tests than can be Automated&lt;/font&gt;" style="text;strokeColor=none;fillColor=none;html=1;fontSize=12;fontStyle=2;verticalAlign=middle;align=left;shadow=0;glass=0;comic=0;opacity=30;fontColor=#808080;" parent="3KLm6uESehlThUzL8ZvY-0" vertex="1">
          <mxGeometry x="120" y="500" width="520" height="20" as="geometry" />
        </mxCell>
        <mxCell id="3KLm6uESehlThUzL8ZvY-1" value="Legend" parent="V2W_sSQIjvDGnYA8sgOU-0" visible="0" />
        <mxCell id="V2W_sSQIjvDGnYA8sgOU-12" value="g" style="rounded=0;whiteSpace=wrap;html=1;fontSize=10;align=left;container=0;collapsible=0;fontColor=#B3B3B3;strokeColor=#B3B3B3;" parent="3KLm6uESehlThUzL8ZvY-1" vertex="1">
          <mxGeometry x="440" y="240" width="240" height="80" as="geometry" />
        </mxCell>
        <mxCell id="V2W_sSQIjvDGnYA8sgOU-13" value="" style="whiteSpace=wrap;html=1;aspect=fixed;fillColor=#dae8fc;strokeColor=#6c8ebf;fontSize=10;align=left;fontStyle=2;strokeWidth=2;" parent="3KLm6uESehlThUzL8ZvY-1" vertex="1">
          <mxGeometry x="453.2944606413994" y="256.6666666666667" width="8.333333333333334" height="8.333333333333334" as="geometry" />
        </mxCell>
        <mxCell id="V2W_sSQIjvDGnYA8sgOU-14" value="" style="whiteSpace=wrap;html=1;aspect=fixed;fillColor=#fff2cc;strokeColor=#d6b656;fontSize=10;align=left;fontStyle=2;strokeWidth=2;" parent="3KLm6uESehlThUzL8ZvY-1" vertex="1">
          <mxGeometry x="453.2944606413994" y="268" width="8.333333333333334" height="8.333333333333334" as="geometry" />
        </mxCell>
        <mxCell id="V2W_sSQIjvDGnYA8sgOU-15" value="" style="whiteSpace=wrap;html=1;aspect=fixed;fillColor=#f8cecc;strokeColor=#b85450;fontSize=10;align=left;fontStyle=2;strokeWidth=2;" parent="3KLm6uESehlThUzL8ZvY-1" vertex="1">
          <mxGeometry x="453.2944606413994" y="279.33333333333337" width="8.333333333333334" height="8.333333333333334" as="geometry" />
        </mxCell>
        <mxCell id="V2W_sSQIjvDGnYA8sgOU-16" value="Maintainability" style="text;html=1;strokeColor=none;fillColor=none;align=left;verticalAlign=middle;whiteSpace=wrap;rounded=0;fontSize=10;fontStyle=2;fontColor=#B3B3B3;" parent="3KLm6uESehlThUzL8ZvY-1" vertex="1">
          <mxGeometry x="466.5945189504373" y="256.6666666666667" width="213.40548104956264" height="8.333333333333334" as="geometry" />
        </mxCell>
        <mxCell id="V2W_sSQIjvDGnYA8sgOU-17" value="Performance" style="text;html=1;strokeColor=none;fillColor=none;align=left;verticalAlign=middle;whiteSpace=wrap;rounded=0;fontSize=10;fontStyle=2;fontColor=#B3B3B3;" parent="3KLm6uESehlThUzL8ZvY-1" vertex="1">
          <mxGeometry x="466.59" y="270" width="213.41" height="6.33" as="geometry" />
        </mxCell>
        <mxCell id="V2W_sSQIjvDGnYA8sgOU-18" value="Security" style="text;html=1;strokeColor=none;fillColor=none;align=left;verticalAlign=middle;whiteSpace=wrap;rounded=0;fontSize=10;fontStyle=2;fontColor=#B3B3B3;" parent="3KLm6uESehlThUzL8ZvY-1" vertex="1">
          <mxGeometry x="466.5945189504373" y="279.33333333333337" width="213.40548104956264" height="8.333333333333334" as="geometry" />
        </mxCell>
        <mxCell id="V2W_sSQIjvDGnYA8sgOU-19" value="Legend" style="text;html=1;strokeColor=none;fillColor=none;align=center;verticalAlign=middle;whiteSpace=wrap;rounded=0;fontSize=10;fontStyle=5;fontColor=#B3B3B3;" parent="3KLm6uESehlThUzL8ZvY-1" vertex="1">
          <mxGeometry x="466.5889212827988" y="240" width="159.53352769679296" height="16.666666666666668" as="geometry" />
        </mxCell>
        <mxCell id="V2W_sSQIjvDGnYA8sgOU-20" value="" style="whiteSpace=wrap;html=1;aspect=fixed;fillColor=#f5f5f5;strokeColor=#666666;fontSize=10;align=left;fontStyle=2;strokeWidth=2;fontColor=#333333;" parent="3KLm6uESehlThUzL8ZvY-1" vertex="1">
          <mxGeometry x="453.2944606413994" y="291.33333333333337" width="8.333333333333334" height="8.333333333333334" as="geometry" />
        </mxCell>
        <mxCell id="V2W_sSQIjvDGnYA8sgOU-21" value="Logic" style="text;html=1;strokeColor=none;fillColor=none;align=left;verticalAlign=middle;whiteSpace=wrap;rounded=0;fontSize=10;fontStyle=2;fontColor=#B3B3B3;" parent="3KLm6uESehlThUzL8ZvY-1" vertex="1">
          <mxGeometry x="466.5945189504373" y="291.33333333333337" width="213.40548104956264" height="8.333333333333334" as="geometry" />
        </mxCell>
        <mxCell id="V2W_sSQIjvDGnYA8sgOU-22" value="" style="whiteSpace=wrap;html=1;aspect=fixed;fillColor=#e1d5e7;strokeColor=#9673a6;fontSize=10;align=left;fontStyle=2;strokeWidth=2;" parent="3KLm6uESehlThUzL8ZvY-1" vertex="1">
          <mxGeometry x="453.2944606413994" y="303.33333333333337" width="8.333333333333334" height="8.333333333333334" as="geometry" />
        </mxCell>
        <mxCell id="V2W_sSQIjvDGnYA8sgOU-23" value="Functionality" style="text;html=1;strokeColor=none;fillColor=none;align=left;verticalAlign=middle;whiteSpace=wrap;rounded=0;fontSize=10;fontStyle=2;fontColor=#B3B3B3;" parent="3KLm6uESehlThUzL8ZvY-1" vertex="1">
          <mxGeometry x="466.5945189504373" y="303.33333333333337" width="213.40548104956264" height="8.333333333333334" as="geometry" />
        </mxCell>
      </root>
    </mxGraphModel>
  </diagram>
</mxfile>
